<svg xmlns="http://www.w3.org/2000/svg" width="224.113" height="224.111" viewBox="0 0 224.113 224.111"><defs><style>.a{fill:#c8bc4d;}.b{fill:#a89c45;}.c{fill:#fff;}</style></defs><path class="a" d="M224.113,112.056c0,2.634-.08,5.267-.275,7.85-.007.216-.029.425-.043.635q-.334,4.448-1.01,8.8-.748,4.859-1.919,9.567a112.272,112.272,0,0,1-59.215,73.651c-2.828,1.4-5.735,2.691-8.7,3.852-.794.311-1.587.614-2.389.9q-1.341.488-2.706.952c-1.363.463-2.741.894-4.134,1.306-.894.267-1.8.512-2.706.757-.043.007-.078.022-.122.029-.245.065-.491.13-.729.2-1.111.288-2.221.555-3.34.815-.109.021-.209.049-.318.071a112.7,112.7,0,0,1-24.45,2.67c-.571,0-1.134-.007-1.7-.014A112.055,112.055,0,1,1,219.776,81.089c.9,3.146,1.674,6.357,2.3,9.61a111.562,111.562,0,0,1,1.623,11.818c.086.995.159,1.991.216,2.994.021.231.029.461.043.693.029.6.057,1.19.079,1.8C224.089,109.343,224.113,110.7,224.113,112.056Z"/><path class="b" d="M795.05,1078.694a112.272,112.272,0,0,1-59.215,73.651c-2.828,1.4-5.735,2.691-8.7,3.852-.794.311-1.587.614-2.389.9q-1.341.487-2.706.952c-1.363.463-2.741.894-4.134,1.306-.894.267-1.8.512-2.706.757-.043.007-.078.022-.122.029l-84.748-58.5,13.153-5.733-4.8-4.657,10.462-2.533,4.543-4.185-3.712-2.666,6.461-30.849-7.292-6.655v-3.177l0-3.546L639.2,1032.4l94.595-.722Z" transform="translate(-574.184 -939.784)"/><g transform="translate(54.86 57.351)"><path class="c" d="M821.271,680.549c3.83,0,4.377-1.769,1.217-3.932l-39.16-31.125a11.077,11.077,0,0,0-11.516-.035l-39.781,31.195c-3.174,2.144-2.638,3.9,1.193,3.9h88.048Z" transform="translate(-719.8 -643.861)"/><path class="c" d="M1200.426,1250.95a2.8,2.8,0,0,0,2.785-2.786V1219.2a2.794,2.794,0,0,0-2.785-2.785H1191.4a2.793,2.793,0,0,0-2.785,2.785v28.969a2.794,2.794,0,0,0,2.785,2.786Z" transform="translate(-1137.605 -1165.411)"/><path class="c" d="M1547.486,1250.95a2.8,2.8,0,0,0,2.785-2.786V1219.2a2.793,2.793,0,0,0-2.785-2.785h-9.021a2.793,2.793,0,0,0-2.784,2.785v28.969a2.8,2.8,0,0,0,2.784,2.786Z" transform="translate(-1453.751 -1165.411)"/><path class="c" d="M853.357,1250.95a2.8,2.8,0,0,0,2.785-2.786V1219.2a2.793,2.793,0,0,0-2.785-2.785h-9.021a2.793,2.793,0,0,0-2.785,2.785v28.969a2.8,2.8,0,0,0,2.785,2.786Z" transform="translate(-821.45 -1165.411)"/><g transform="translate(9.637 86.267)"><path class="c" d="M1352.4,1642.568a.385.385,0,0,0,0,.044c0,.013,0,.015,0-.022S1352.4,1642.555,1352.4,1642.568Z" transform="translate(-1296.436 -1639.869)"/><path class="c" d="M1188.62,1642.591c0,.036,0,.058,0,.045s0-.054,0-.067S1188.62,1642.552,1188.62,1642.591Z" transform="translate(-1147.242 -1639.869)"/><path class="c" d="M1535.68,1642.591c0,.036,0,.058,0,.045a.554.554,0,0,0,0-.067C1535.68,1642.555,1535.68,1642.552,1535.68,1642.591Z" transform="translate(-1463.388 -1639.869)"/><path class="c" d="M1699.466,1642.568a.193.193,0,0,0,0,.044c0,.013,0,.015,0-.022S1699.466,1642.555,1699.466,1642.568Z" transform="translate(-1612.584 -1639.869)"/><path class="c" d="M841.55,1642.591c0,.036,0,.058,0,.045s0-.054,0-.067S841.55,1642.552,841.55,1642.591Z" transform="translate(-831.086 -1639.869)"/><path class="c" d="M1005.346,1642.568a.18.18,0,0,0,0,.044c0,.013,0,.015,0-.022S1005.347,1642.555,1005.346,1642.568Z" transform="translate(-980.292 -1639.869)"/><path class="c" d="M724.082,1620.2a2.794,2.794,0,0,0,2.785,2.785h89.549a2.793,2.793,0,0,0,2.785-2.785v-1.627a2.794,2.794,0,0,0-2.785-2.785h-2.783a7.941,7.941,0,0,1-2.733-.234,6.512,6.512,0,0,0-.578-1.842c-.35-.746-3.4-1.359-4.929-1.359H801.94a13.147,13.147,0,0,0-4.157.609c-.755.334-1.4,2.22-1.387,2.353a5.309,5.309,0,0,1-2.7.473H782.718a7.938,7.938,0,0,1-2.733-.234,6.529,6.529,0,0,0-.577-1.842c-.35-.746-3.4-1.359-4.93-1.359h-3.452a13.152,13.152,0,0,0-4.158.609c-.754.334-1.4,2.22-1.386,2.352a5.306,5.306,0,0,1-2.7.473H751.8a7.931,7.931,0,0,1-2.732-.234,6.559,6.559,0,0,0-.577-1.842c-.351-.746-3.4-1.359-4.93-1.359h-3.452a13.145,13.145,0,0,0-4.158.609c-.755.334-1.4,2.22-1.387,2.352a5.3,5.3,0,0,1-2.7.473h-5.007a2.794,2.794,0,0,0-2.785,2.785v1.63Z" transform="translate(-724.08 -1612.35)"/></g><path class="c" d="M797.782,1083.923a12.978,12.978,0,0,0,4.178.626h3.453a12.968,12.968,0,0,0,4.177-.626c.765-.346,1.392-2.54,1.392-3.007s1.253-.849,2.785-.849h2.668a2.793,2.793,0,0,0,2.785-2.785v-1.627a2.793,2.793,0,0,0-2.785-2.785H726.885a2.794,2.794,0,0,0-2.785,2.785v1.627a2.794,2.794,0,0,0,2.785,2.785h4.892c1.531,0,2.784.382,2.784.849a7.1,7.1,0,0,0,.627,2.241c.345.766,3.411,1.392,4.944,1.392h3.452a12.974,12.974,0,0,0,4.178-.626c.765-.346,1.392-2.54,1.392-3.007s1.254-.849,2.785-.849h10.752c1.531,0,2.785.382,2.785.849a7.117,7.117,0,0,0,.626,2.241c.345.766,3.412,1.392,4.944,1.392H774.5a12.965,12.965,0,0,0,4.178-.626c.765-.346,1.393-2.54,1.393-3.007s1.253-.849,2.785-.849h10.751c1.532,0,2.785.382,2.785.849S797.017,1083.578,797.782,1083.923Z" transform="translate(-714.461 -1034.656)"/><path class="c" d="M730.287,1745.775a3.063,3.063,0,0,0-3.054-3.055H618.944a3.064,3.064,0,0,0-3.054,3.055v1.089a3.063,3.063,0,0,0,3.054,3.054H727.233a3.063,3.063,0,0,0,3.054-3.054Z" transform="translate(-615.89 -1644.84)"/></g></svg>