<svg xmlns="http://www.w3.org/2000/svg" width="74.999" height="75" viewBox="0 0 74.999 75"><defs><style>.a{fill:#4e3b0e;}</style></defs><g transform="translate(-0.004)"><path class="a" d="M204.49,330.318a6.269,6.269,0,0,0,1.445-3.978,6.333,6.333,0,0,0-12.665,0,6.269,6.269,0,0,0,1.445,3.978A3.792,3.792,0,0,0,192,333.94v10.132a1.267,1.267,0,0,0,2.533,0V333.94a1.267,1.267,0,0,1,1.267-1.267h7.6a1.267,1.267,0,0,1,1.267,1.267v10.132a1.267,1.267,0,0,0,2.533,0V333.94A3.793,3.793,0,0,0,204.49,330.318Zm-4.887-7.777a3.8,3.8,0,1,1-3.8,3.8A3.8,3.8,0,0,1,199.6,322.541Zm0,0" transform="translate(-162.1 -270.338)"/><path class="a" d="M326.782,192.858a8.866,8.866,0,0,0,5.085-7.985V182.34a6.34,6.34,0,0,0-6.333-6.333h-19A2.533,2.533,0,0,0,304,178.541v6.333a8.866,8.866,0,0,0,5.085,7.985,8.833,8.833,0,0,0,2.653,5.947h-1.406A6.34,6.34,0,0,0,304,205.137v17.731a1.267,1.267,0,1,0,2.533,0V212.736h2.533v10.132a1.267,1.267,0,1,0,2.533,0v-11.4a1.267,1.267,0,0,0-1.267-1.267h-3.8v-5.066a3.8,3.8,0,0,1,3.8-3.8h2.533a5.066,5.066,0,1,0,10.132,0h2.533a3.8,3.8,0,0,1,3.8,3.8V210.2h-3.8a1.267,1.267,0,0,0-1.267,1.267v11.4a1.266,1.266,0,1,0,2.533,0V212.736h2.533v10.132a1.267,1.267,0,1,0,2.533,0V205.137a6.34,6.34,0,0,0-6.333-6.333h-1.408A8.832,8.832,0,0,0,326.782,192.858Zm-15.179-.386V186.14h6.333a1.267,1.267,0,0,0,0-2.533h-7.6a1.267,1.267,0,0,0-1.267,1.267v5.058a6.333,6.333,0,0,1-2.533-5.058v-6.333h19a3.8,3.8,0,0,1,3.8,3.8v2.533a6.332,6.332,0,0,1-2.533,5.058v-5.058a1.267,1.267,0,0,0-1.266-1.267H323a1.267,1.267,0,1,0,0,2.533h1.267v6.333a6.333,6.333,0,0,1-12.665,0Zm6.333,11.4a2.533,2.533,0,0,1-2.533-2.533h5.066A2.533,2.533,0,0,1,317.936,203.871Zm0,0" transform="translate(-256.865 -149.135)"/><path class="a" d="M21.535,239.206H20.127a8.829,8.829,0,0,0,2.674-6.333v-7.6a1.267,1.267,0,0,0-1.267-1.267H19a1.267,1.267,0,1,0,0,2.533h1.267v6.333a6.333,6.333,0,0,1-12.665,0v-6.333h6.333a1.267,1.267,0,1,0,0-2.533h-7.6a1.267,1.267,0,0,0-1.267,1.267v7.6a8.834,8.834,0,0,0,2.672,6.333H6.337A6.34,6.34,0,0,0,0,245.539V263.27a1.267,1.267,0,1,0,2.533,0V253.138H5.07V263.27a1.267,1.267,0,1,0,2.533,0v-11.4A1.267,1.267,0,0,0,6.337,250.6h-3.8v-5.066a3.8,3.8,0,0,1,3.8-3.8H8.87v2.533a1.265,1.265,0,0,0,.371.9l3.428,3.428V254.4a1.267,1.267,0,0,0,2.533,0V248.6l3.428-3.428a1.271,1.271,0,0,0,.371-.9v-2.533h2.533a3.8,3.8,0,0,1,3.8,3.8V250.6h-3.8a1.267,1.267,0,0,0-1.267,1.267v11.4a1.267,1.267,0,1,0,2.533,0V253.138h2.533V263.27a1.267,1.267,0,1,0,2.533,0V245.539a6.34,6.34,0,0,0-6.333-6.333Zm-5.066,4.542-2.533,2.533L11.4,243.748v-2.009h5.066Zm0,0" transform="translate(0 -189.536)"/><path class="a" d="M13.936,160.008A13.947,13.947,0,0,0,0,173.94v8.866a1.267,1.267,0,0,0,2.533,0V173.94a11.4,11.4,0,1,1,22.8,0v8.866a1.267,1.267,0,0,0,2.533,0V173.94a13.948,13.948,0,0,0-13.932-13.932Zm0,0" transform="translate(0 -135.16)"/><path class="a" d="M11.837,22.382l1.152-.542V22.8a1.25,1.25,0,1,0,2.5,0V20.663L41.38,8.478a3.74,3.74,0,0,1,3.194,0L70.467,20.663V22.8a1.25,1.25,0,1,0,2.5,0v-.959l1.152.542A3.728,3.728,0,0,0,79.1,20.535a3.822,3.822,0,0,0-1.822-5.047L45.626.594a6.207,6.207,0,0,0-5.3,0L8.679,15.488a3.822,3.822,0,0,0-1.822,5.047,3.729,3.729,0,0,0,4.98,1.847ZM9.088,18.5a1.258,1.258,0,0,1,.647-.714L41.38,2.892a3.74,3.74,0,0,1,3.194,0L76.223,17.786a1.274,1.274,0,0,1,.607,1.683,1.243,1.243,0,0,1-1.661.616L45.626,6.179a6.207,6.207,0,0,0-5.3,0L10.785,20.084a1.234,1.234,0,0,1-.956.041,1.253,1.253,0,0,1-.7-.657,1.269,1.269,0,0,1-.04-.968Zm0,0" transform="translate(-5.474)"/><path class="a" d="M205.936,104.008H193.271A1.267,1.267,0,0,0,192,105.275v10.132a1.267,1.267,0,1,0,2.533,0v-3.8h3.8v3.8a1.267,1.267,0,1,0,2.533,0v-3.8h3.8v3.8a1.267,1.267,0,0,0,2.533,0V105.275A1.267,1.267,0,0,0,205.936,104.008Zm-11.4,5.066v-2.533h3.8v2.533Zm6.333,0v-2.533h3.8v2.533Zm0,0" transform="translate(-162.1 -87.8)"/></g></svg>