<svg xmlns="http://www.w3.org/2000/svg" width="92.755" height="75.461" viewBox="0 0 92.755 75.461"><defs><style>.a{fill:#4e3b0e;}</style></defs><g transform="translate(0.001 2.5)"><path class="a" d="M85.053,15.7h-.8a8.594,8.594,0,0,0-7.689-7.54A8.593,8.593,0,0,0,68.039.5H13.288A13.3,13.3,0,0,0,0,13.788V52.177a8.592,8.592,0,0,0,7.749,8.541,8.591,8.591,0,0,0,8.39,7.658,7.69,7.69,0,0,0,7.7,7.585H85.053a7.71,7.71,0,0,0,7.7-7.7V23.4a7.71,7.71,0,0,0-7.7-7.7Zm4.078,7.7V53.068l-7.881-5.953A6.048,6.048,0,0,0,74,47.052l-9.969,7.264-19.011-19.6a6.073,6.073,0,0,0-8.389-.326L19.759,49.279V23.4a4.083,4.083,0,0,1,4.078-4.078H85.053A4.083,4.083,0,0,1,89.131,23.4Zm0,44.856a4.083,4.083,0,0,1-4.078,4.078H23.837a4.078,4.078,0,0,1-4.078-4.078V54.111l19.275-17a2.454,2.454,0,0,1,3.39.132L51,46.084h0L68.081,63.69a1.811,1.811,0,1,0,2.6-2.522l-4.1-4.226,9.555-6.961a2.444,2.444,0,0,1,2.929.025l10.064,7.6ZM11.322,59.8V17.024a5.22,5.22,0,0,1,.028-.539,5.286,5.286,0,0,1,5.252-4.74h22.16a1.812,1.812,0,0,0,0-3.623H16.6a8.912,8.912,0,0,0-8.9,8.9V57.057a4.966,4.966,0,0,1-4.076-4.88V13.788a9.676,9.676,0,0,1,9.665-9.665H68.039a4.965,4.965,0,0,1,4.863,4H53.254a1.812,1.812,0,0,0,0,3.623H75.738A4.966,4.966,0,0,1,80.594,15.7H23.837a7.71,7.71,0,0,0-7.7,7.7V53.292h0V64.753A4.962,4.962,0,0,1,11.322,59.8Zm0,0" transform="translate(0 -3)"/><path class="a" d="M353.472,145.117a7.753,7.753,0,1,0,7.753,7.753A7.762,7.762,0,0,0,353.472,145.117Zm0,11.882a4.13,4.13,0,1,1,4.129-4.129A4.134,4.134,0,0,1,353.472,157Zm0,0" transform="translate(-283.088 -118.418)"/><path class="a" d="M244.1,45.078a1.859,1.859,0,0,0,.166.312,1.793,1.793,0,0,0,.225.275,1.9,1.9,0,0,0,.275.226,1.845,1.845,0,0,0,.314.166,1.815,1.815,0,0,0,1.047.1,1.834,1.834,0,0,0,.65-.27,1.937,1.937,0,0,0,.275-.226,1.8,1.8,0,0,0,.226-.275,1.859,1.859,0,0,0,.166-.312,1.9,1.9,0,0,0,.1-.338,1.837,1.837,0,0,0,.035-.355,1.832,1.832,0,0,0-.3-1.006,1.769,1.769,0,0,0-.226-.275,1.794,1.794,0,0,0-.275-.225,1.834,1.834,0,0,0-.65-.27,1.782,1.782,0,0,0-.708,0,1.8,1.8,0,0,0-.339.1,1.845,1.845,0,0,0-.314.166,1.779,1.779,0,0,0-.5.5,1.838,1.838,0,0,0-.306,1.006,1.839,1.839,0,0,0,.036.355,1.9,1.9,0,0,0,.1.338Zm0,0" transform="translate(-199.764 -34.451)"/></g></svg>