<svg xmlns="http://www.w3.org/2000/svg" width="75.5" height="75.5" viewBox="0 0 75.5 75.5"><defs><style>.a{fill:#4e3b0e;stroke:#4e3b0e;stroke-width:0.5px;}</style></defs><g transform="translate(0.25 0.25)"><path class="a" d="M44.282,64.8a6.289,6.289,0,1,0,6.309,6.308A6.309,6.309,0,0,0,44.282,64.8Zm0,10.388a4.08,4.08,0,1,1,4.023-4.023A4.08,4.08,0,0,1,44.282,75.191Z" transform="translate(-8.213 -14.025)"/><path class="a" d="M37.5,0A37.5,37.5,0,1,0,75,37.5,37.5,37.5,0,0,0,37.5,0Zm0,72.8A35.3,35.3,0,1,1,72.8,37.5,35.3,35.3,0,0,1,37.5,72.8Z"/><path class="a" d="M59.6,40.582" transform="translate(-12.9 -8.783)"/><path class="a" d="M54.675,36.348c2.637-3.051,3.978-6.243,3.978-9.488a11.092,11.092,0,0,0-4.368-8.815,17.665,17.665,0,0,0-11.113-3.427c-5.491,0-8.887,1.854-10.769,3.409a9.2,9.2,0,0,0-3.634,6.743,4.744,4.744,0,0,0,1.756,3.777,5.506,5.506,0,0,0,3.406,1.182c2.124,0,3.056-1.374,3.8-2.477.948-1.4,1.843-2.717,5.234-2.717,1.163,0,4.956.251,4.956,3.473,0,2.429-2.248,4.158-4.231,5.68-.49.375-.953.731-1.385,1.1-2.284,1.968-4.907,5.009-4.907,11.1,0,3.381.82,5.634,4.824,5.634a5.763,5.763,0,0,0,3.98-1.194,3.525,3.525,0,0,0,1.113-2.687c0-3.285,0-4.937,3.35-7.554l.057-.045c.186-.151.363-.3.545-.459.86-.755,1.785-1.553,2.827-2.616.346-.353.488-.509.505-.528h0c.019-.02.034-.042.052-.063l.02-.019Zm-5.317,1.931-.059.045c-4.01,3.134-4.205,5.465-4.205,9.31,0,.494,0,1.652-2.865,1.652-1.4,0-1.825-.292-2.037-.549a4.825,4.825,0,0,1-.556-2.858c0-5.153,2.09-7.648,4.126-9.4.384-.326.825-.664,1.293-1.023,2.272-1.745,5.1-3.918,5.1-7.448,0-3.463-2.821-5.7-7.185-5.7-4.573,0-6.021,2.136-7.079,3.7-.723,1.066-1.052,1.5-1.959,1.5a2.769,2.769,0,0,1-2.928-2.6q0-.065,0-.129a6.978,6.978,0,0,1,2.825-5.026c1.6-1.322,4.521-2.9,9.35-2.9,7.8,0,13.251,4.118,13.251,10.014,0,2.721-1.175,5.447-3.5,8.106a4.915,4.915,0,0,1-.378.407c-.748.724-2.012,1.926-2.716,2.532C49.663,38.05,49.5,38.17,49.358,38.279Z" transform="translate(-6.226 -3.163)"/></g></svg>