<svg xmlns="http://www.w3.org/2000/svg" width="75" height="70.682" viewBox="0 0 75 70.682"><defs><style>.a{fill:#4e3b0e;}</style></defs><path class="a" d="M109.259,206.64a1.38,1.38,0,0,0-1.379,1.38v31.741a1.38,1.38,0,0,1-1.38,1.379H92.7v-20.7a4.14,4.14,0,0,0-4.14-4.14h-13.8a4.14,4.14,0,0,0-4.14,4.14v20.7h-13.8a1.38,1.38,0,0,1-1.379-1.379v-31.74a1.379,1.379,0,0,0-2.759,0v31.741a4.14,4.14,0,0,0,4.14,4.14H106.5a4.14,4.14,0,0,0,4.14-4.14V208.021A1.385,1.385,0,0,0,109.259,206.64Zm-19.321,34.5H73.377v-20.7a1.38,1.38,0,0,1,1.38-1.379h13.8a1.38,1.38,0,0,1,1.379,1.379l0,20.7Z" transform="translate(-44.16 -173.221)"/><path class="a" d="M73.8,22.1,40.439,1.205a4.178,4.178,0,0,0-5.882,0L1.2,22.1a4.262,4.262,0,0,0-.86,4.643A4.081,4.081,0,0,0,4.14,29.3h.472a4.1,4.1,0,0,0,2.677-1.029,2,2,0,0,0,.277-.218L37.5,10.658,67.451,28.066a1.875,1.875,0,0,0,.259.205A4.11,4.11,0,0,0,70.383,29.3h.472a4.084,4.084,0,0,0,3.8-2.549A4.265,4.265,0,0,0,73.8,22.1Zm-1.684,3.569a1.364,1.364,0,0,1-1.26.862h-.472a1.333,1.333,0,0,1-.965-.414c-.01-.011-.024-.015-.034-.024a.312.312,0,0,0-.032-.034L38.487,7.715,38.471,7.7l-.006-.021a1.232,1.232,0,0,0-.213-.137.749.749,0,0,0-.49-.2.736.736,0,0,0-.513,0,1.286,1.286,0,0,0-.26.055,1.435,1.435,0,0,0-.231.147,1.335,1.335,0,0,0-.213.137l-.011.016-.016.011L5.643,26.062c-.013.01-.018.024-.031.034a.34.34,0,0,0-.036.024,1.339,1.339,0,0,1-.965.414H4.142a1.364,1.364,0,0,1-1.26-.862,1.5,1.5,0,0,1,.3-1.646h0L36.532,3.13a1.355,1.355,0,0,1,1.924,0l33.362,20.9A1.5,1.5,0,0,1,72.114,25.672Z" transform="translate(0 0.005)"/><path class="a" d="M187.311,147.79a4.14,4.14,0,0,0,4.14-4.14v-9.66a4.14,4.14,0,0,0-4.14-4.14H176.27a4.14,4.14,0,0,0-4.14,4.14v9.66a4.14,4.14,0,0,0,4.14,4.14Zm-12.42-4.14v-9.66a1.38,1.38,0,0,1,1.379-1.379h11.041a1.38,1.38,0,0,1,1.38,1.379v9.66a1.38,1.38,0,0,1-1.38,1.38H176.27A1.38,1.38,0,0,1,174.891,143.65Z" transform="translate(-144.293 -108.85)"/><path class="a" d="M191.959,343.18h-1.38a1.38,1.38,0,1,0,0,2.759h1.38a1.38,1.38,0,0,0,0-2.759Z" transform="translate(-158.602 -287.679)"/></svg>