<svg xmlns="http://www.w3.org/2000/svg" width="74.93" height="74.93" viewBox="0 0 74.93 74.93"><defs><style>.a{fill:#4e3b0e;}</style></defs><g transform="translate(0)"><path class="a" d="M63.957,10.973A37.465,37.465,0,1,0,10.973,63.957,37.465,37.465,0,1,0,63.957,10.973ZM37.465,71.945a34.48,34.48,0,1,1,34.48-34.48A34.519,34.519,0,0,1,37.465,71.945Z"/><g transform="translate(32.241 25.3)"><path class="a" d="M225.527,172.877A5.23,5.23,0,0,0,220.3,178.1v25.972a5.224,5.224,0,1,0,10.448,0V178.1A5.23,5.23,0,0,0,225.527,172.877Zm2.239,31.2a2.239,2.239,0,1,1-4.478,0V178.1a2.239,2.239,0,1,1,4.478,0Z" transform="translate(-220.303 -172.877)"/></g><g transform="translate(32.241 13.21)"><path class="a" d="M229.22,91.791a5.226,5.226,0,1,0,1.531,3.7A5.266,5.266,0,0,0,229.22,91.791Zm-2.109,5.278a2.241,2.241,0,1,1,.654-1.582A2.261,2.261,0,0,1,227.112,97.07Z" transform="translate(-220.303 -90.263)"/></g></g></svg>