<svg xmlns="http://www.w3.org/2000/svg" width="66.004" height="75" viewBox="0 0 66.004 75"><defs><style>.a{fill:#4e3b0e;fill-rule:evenodd;}</style></defs><g transform="translate(0 0)"><path class="a" d="M64.539,30.275H14.563l48-13.906a1.465,1.465,0,0,0,1-1.814L61.053,5.883A8.2,8.2,0,0,0,53.211,0a8.116,8.116,0,0,0-2.256.321L5.885,13.377a8.171,8.171,0,0,0-5.562,10.1l2.454,8.472v34.9A8.161,8.161,0,0,0,10.929,75h17.6a1.465,1.465,0,0,0,0-2.93H10.93a5.228,5.228,0,0,1-5.223-5.222V46.913H63.074V66.848a5.228,5.228,0,0,1-5.223,5.222H40.25a1.465,1.465,0,0,0,0,2.93h17.6A8.161,8.161,0,0,0,66,66.848V31.74a1.465,1.465,0,0,0-1.465-1.465ZM38.71,43.984,44.933,33.2h8.095L46.805,43.984Zm-11.478,0L33.455,33.2H41.55L35.327,43.984Zm-11.478,0L21.977,33.2h8.1L23.848,43.984ZM21.2,25.02,10.777,15.01l7.809-2.262a1.453,1.453,0,0,0,.192.226L29.2,22.984l-7.809,2.262A1.457,1.457,0,0,0,21.2,25.02ZM40.828,6.587,51.251,16.6l-7.809,2.262a1.427,1.427,0,0,0-.192-.226L32.827,8.623l7.809-2.262A1.453,1.453,0,0,0,40.828,6.587ZM29.8,9.781,40.225,19.79l-7.809,2.262a1.427,1.427,0,0,0-.192-.226L21.8,11.817l7.809-2.262A1.548,1.548,0,0,0,29.8,9.781ZM51.77,3.135a5.179,5.179,0,0,1,1.441-.205A5.256,5.256,0,0,1,58.239,6.7l2.1,7.264-5.877,1.7a1.489,1.489,0,0,0-.193-.226L43.853,5.429ZM3.586,18.692a5.184,5.184,0,0,1,3.115-2.5l.861-.249a1.49,1.49,0,0,0,.192.226l10.422,10.01L5.242,29.925l-2.1-7.264a5.185,5.185,0,0,1,.449-3.969ZM5.707,33.2H18.594L12.37,43.984H5.707ZM50.188,43.984,56.411,33.2h6.663V43.984Zm0,0" transform="translate(0 0)"/><path class="a" d="M211.849,353.277a1.463,1.463,0,0,0-.732-1.267l-12.856-7.422a1.463,1.463,0,0,0-2.2,1.267V360.7a1.463,1.463,0,0,0,2.2,1.267l12.856-7.422a1.463,1.463,0,0,0,.732-1.267Zm-12.856,4.888v-9.776l8.466,4.888Zm0,0" transform="translate(-167.337 -293.918)"/><path class="a" d="M226.236,492a1.463,1.463,0,1,0,1.463,1.463A1.466,1.466,0,0,0,226.236,492Zm0,0" transform="translate(-191.846 -419.927)"/></g></svg>